<mxfile host="app.diagrams.net" agent="Mozilla/5.0 (Windows NT 10.0; Win64; x64) AppleWebKit/537.36 (KHTML, like Gecko) Chrome/133.0.0.0 Safari/537.36" version="26.0.16">
  <diagram name="Página-1" id="7TQEwST2vA1aQfWyUec5">
    <mxGraphModel dx="2161" dy="713" grid="1" gridSize="10" guides="1" tooltips="1" connect="1" arrows="1" fold="1" page="1" pageScale="1" pageWidth="850" pageHeight="1100" math="0" shadow="0">
      <root>
        <mxCell id="0" />
        <mxCell id="1" parent="0" />
        <mxCell id="4" value="idade &gt; 18?" style="rhombus;strokeWidth=2;whiteSpace=wrap;" parent="1" vertex="1">
          <mxGeometry x="407" y="96" width="163" height="163" as="geometry" />
        </mxCell>
        <mxCell id="8" value="Fim" style="rounded=1;arcSize=20;strokeWidth=2" parent="1" vertex="1">
          <mxGeometry x="1020" y="159" width="56" height="54" as="geometry" />
        </mxCell>
        <mxCell id="12" value="Sim" style="curved=1;startArrow=none;endArrow=block;exitX=1;exitY=0.22;entryX=0;entryY=0.5;entryDx=0;entryDy=0;strokeWidth=2;" parent="1" source="4" target="fKsPuileImGHKrqJPeaW-25" edge="1">
          <mxGeometry relative="1" as="geometry">
            <Array as="points">
              <mxPoint x="610" y="110" />
            </Array>
            <mxPoint x="730" y="112.00000000000023" as="targetPoint" />
          </mxGeometry>
        </mxCell>
        <mxCell id="15" value="" style="curved=1;startArrow=none;endArrow=block;exitX=1;exitY=0.25;entryX=0.12;entryY=0;strokeWidth=2;exitDx=0;exitDy=0;" parent="1" source="fKsPuileImGHKrqJPeaW-25" target="8" edge="1">
          <mxGeometry relative="1" as="geometry">
            <Array as="points">
              <mxPoint x="1000" y="100" />
            </Array>
            <mxPoint x="910" y="111.46000000000004" as="sourcePoint" />
          </mxGeometry>
        </mxCell>
        <mxCell id="16" value="Não" style="curved=1;startArrow=none;endArrow=block;exitX=1;exitY=0.78;entryX=0;entryY=0.5;strokeWidth=2;entryDx=0;entryDy=0;" parent="1" source="4" target="fKsPuileImGHKrqJPeaW-26" edge="1">
          <mxGeometry relative="1" as="geometry">
            <Array as="points">
              <mxPoint x="610" y="246" />
            </Array>
            <mxPoint x="720" y="247.00000000000023" as="targetPoint" />
          </mxGeometry>
        </mxCell>
        <mxCell id="17" value="" style="curved=1;startArrow=none;endArrow=block;exitX=1;exitY=0.5;entryX=0.12;entryY=1;strokeWidth=2;exitDx=0;exitDy=0;" parent="1" source="fKsPuileImGHKrqJPeaW-26" target="8" edge="1">
          <mxGeometry relative="1" as="geometry">
            <Array as="points">
              <mxPoint x="1000" y="260" />
            </Array>
            <mxPoint x="928" y="247.00000000000023" as="sourcePoint" />
          </mxGeometry>
        </mxCell>
        <mxCell id="fKsPuileImGHKrqJPeaW-23" style="edgeStyle=orthogonalEdgeStyle;rounded=0;orthogonalLoop=1;jettySize=auto;html=1;exitX=1;exitY=0.5;exitDx=0;exitDy=0;entryX=0;entryY=0.5;entryDx=0;entryDy=0;strokeWidth=2;" edge="1" parent="1" source="fKsPuileImGHKrqJPeaW-18" target="4">
          <mxGeometry relative="1" as="geometry" />
        </mxCell>
        <mxCell id="fKsPuileImGHKrqJPeaW-18" value="&lt;span style=&quot;text-wrap-mode: nowrap;&quot;&gt;Recebe a idade&lt;/span&gt;" style="shape=parallelogram;perimeter=parallelogramPerimeter;whiteSpace=wrap;html=1;fixedSize=1;strokeWidth=2;" vertex="1" parent="1">
          <mxGeometry x="120" y="142" width="240" height="71" as="geometry" />
        </mxCell>
        <mxCell id="fKsPuileImGHKrqJPeaW-24" style="edgeStyle=orthogonalEdgeStyle;rounded=0;orthogonalLoop=1;jettySize=auto;html=1;exitX=1;exitY=0.5;exitDx=0;exitDy=0;entryX=0;entryY=0.5;entryDx=0;entryDy=0;strokeWidth=2;" edge="1" parent="1" source="fKsPuileImGHKrqJPeaW-21" target="fKsPuileImGHKrqJPeaW-18">
          <mxGeometry relative="1" as="geometry" />
        </mxCell>
        <mxCell id="fKsPuileImGHKrqJPeaW-21" value="Inicio" style="ellipse;whiteSpace=wrap;html=1;strokeWidth=2;" vertex="1" parent="1">
          <mxGeometry x="-90" y="143" width="130" height="70" as="geometry" />
        </mxCell>
        <mxCell id="fKsPuileImGHKrqJPeaW-25" value="&lt;span style=&quot;text-wrap-mode: nowrap;&quot;&gt;Exibe a mensagem&lt;/span&gt;&lt;br style=&quot;padding: 0px; margin: 0px; text-wrap-mode: nowrap;&quot;&gt;&lt;span style=&quot;text-wrap-mode: nowrap;&quot;&gt;&quot;Maior de 18 anos&quot;&lt;/span&gt;" style="shape=document;whiteSpace=wrap;html=1;boundedLbl=1;strokeWidth=2;" vertex="1" parent="1">
          <mxGeometry x="730" y="79" width="170" height="80" as="geometry" />
        </mxCell>
        <mxCell id="fKsPuileImGHKrqJPeaW-26" value="&lt;span style=&quot;text-wrap-mode: nowrap;&quot;&gt;Exibe a mensagem&lt;/span&gt;&lt;br style=&quot;padding: 0px; margin: 0px; text-wrap-mode: nowrap;&quot;&gt;&lt;span style=&quot;text-wrap-mode: nowrap;&quot;&gt;&quot;Menor de 18 anos&quot;&lt;/span&gt;" style="shape=document;whiteSpace=wrap;html=1;boundedLbl=1;strokeWidth=2;" vertex="1" parent="1">
          <mxGeometry x="730" y="210" width="170" height="80" as="geometry" />
        </mxCell>
      </root>
    </mxGraphModel>
  </diagram>
</mxfile>
